PathFileType	4	(X/Y/Z)	C:\Users\Basilio\Documents\Thesis Gigler\squatting_fais\c3dfiles\076\SLS_back_pre3\markers_experimental.trc
DataRate	CameraRate	NumFrames	NumMarkers	Units	OrigDataRate	OrigDataStartFrame	OrigNumFrames
200.000000	200.000000	4	61	mm	200.000000	664	1772
Frame#	Time	FHD			LBHD			RBHD			C7			T10			CLAV			LSHO			LUUPA			LMUPA			LDUPA			LLEP			LMEP			LRAD			LUL			LRFIN			RSHO			RUPA1			RMUPA			RDUPA			RLEP			RMEP			RRAD			RUL			RUFIN			LASI			RASI			USACR			LSACR			RSACR			LTHI1			LTHI2			LTHI3			LTHI4			LLFC			LMFC			LTIB1			LTIB2			LTIB3			LTIB4			LLMAL			LMMAL			LHEE			LMT1			LMT2			LMT5			RTHI			RTHI2			RTHI3			RTHI4			RLFC			RMFC			RTIB1			RTIB2			RTIB3			RTIB4			RLMAL			RMMAL			RHEE			RMT1			RMT2			RMT5			
		X1	Y1	Z1	X2	Y2	Z2	X3	Y3	Z3	X4	Y4	Z4	X5	Y5	Z5	X6	Y6	Z6	X7	Y7	Z7	X8	Y8	Z8	X9	Y9	Z9	X10	Y10	Z10	X11	Y11	Z11	X12	Y12	Z12	X13	Y13	Z13	X14	Y14	Z14	X15	Y15	Z15	X16	Y16	Z16	X17	Y17	Z17	X18	Y18	Z18	X19	Y19	Z19	X20	Y20	Z20	X21	Y21	Z21	X22	Y22	Z22	X23	Y23	Z23	X24	Y24	Z24	X25	Y25	Z25	X26	Y26	Z26	X27	Y27	Z27	X28	Y28	Z28	X29	Y29	Z29	X30	Y30	Z30	X31	Y31	Z31	X32	Y32	Z32	X33	Y33	Z33	X34	Y34	Z34	X35	Y35	Z35	X36	Y36	Z36	X37	Y37	Z37	X38	Y38	Z38	X39	Y39	Z39	X40	Y40	Z40	X41	Y41	Z41	X42	Y42	Z42	X43	Y43	Z43	X44	Y44	Z44	X45	Y45	Z45	X46	Y46	Z46	X47	Y47	Z47	X48	Y48	Z48	X49	Y49	Z49	X50	Y50	Z50	X51	Y51	Z51	X52	Y52	Z52	X53	Y53	Z53	X54	Y54	Z54	X55	Y55	Z55	X56	Y56	Z56	X57	Y57	Z57	X58	Y58	Z58	X59	Y59	Z59	X60	Y60	Z60	X61	Y61	Z61	

665	3.32	-243.8642578125001	1642.677856445313	-1002.849914550781	-380.9454956054688	1564.36572265625	-1095.511108398438	-364.6092224121094	1571.007690429688	-944.3884887695315	-420.4914855957032	1445.7998046875	-1018.534973144531	-453.1684570312501	1131.229614257813	-1035.204223632813	-288.1283569335938	1372.279174804688	-1022.473022460938	-354.5328063964844	1404.6103515625	-1178.937622070313	-226.0326385498047	1354.59423828125	-1283.466430664063	-186.5674743652344	1370.077392578125	-1256.655883789063	-164.414535522461	1348.156494140625	-1309.484375	-117.0314025878907	1329.272216796875	-1332.033935546875	-102.1828384399414	1263.790283203125	-1285.922607421875	133.5405426025391	1359.18505859375	-1292.60498046875	129.2686462402344	1362.051391601563	-1357.673950195313	216.0895233154297	1374.131103515625	-1295.417236328125	-348.6541442871094	1394.667236328125	-870.1704101562502	-221.0194091796876	1326.485229492188	-773.1165161132815	-187.0695343017578	1356.601440429688	-791.787780761719	-151.97607421875	1315.710205078125	-761.5684814453126	-83.77805328369142	1315.226318359375	-762.1679687500001	-78.18228149414064	1263.651123046875	-820.6177978515627	157.5097961425782	1341.623779296875	-827.0570068359377	153.7417144775391	1338.820678710938	-760.6174316406251	233.8130187988282	1361.0380859375	-819.7227783203127	-290.3735656738282	944.2064208984377	-1133.586303710938	-295.5373229980469	952.851257324219	-917.0698242187502	-457.9817199707032	1021.064697265625	-1030.682250976563	-465.9673461914064	991.4849853515627	-1057.193603515625	-468.6848144531251	993.2744750976565	-1000.1826171875	-369.5732116699219	783.1977539062502	-1188.81103515625	-338.8404541015626	704.7775268554689	-1180.95751953125	-289.4102478027344	709.4747314453126	-1173.691528320313	-365.3701171875001	653.8505859375001	-1159.236083984375	-351.7218322753907	496.0715637207032	-1120.1826171875	-320.5558471679688	503.2638549804689	-1004.949768066406	-317.0872192382813	358.7783508300782	-1034.75146484375	-339.6356201171876	298.3065185546876	-1095.064086914063	-310.3515319824219	305.1755676269532	-1057.8994140625	-326.3175964355469	232.9654846191407	-1017.623962402344	-384.5290527343751	106.4258651733399	-1055.916870117188	-357.2549133300782	122.5618438720703	-977.5860595703127	-441.8434143066407	96.3630065917969	-1006.927307128906	-240.5162811279297	51.84090423583986	-992.8367919921877	-235.4918518066407	50.30553436279298	-1032.00439453125	-260.1209716796876	44.5693588256836	-1082.203369140625	-279.9127502441407	729.4317016601564	-828.6931152343752	-219.4277038574219	695.3408203125001	-826.7877197265627	-190.201416015625	709.2303466796876	-839.4647216796877	-216.1694793701172	611.2896118164064	-834.5854492187502	-204.8251342773438	572.9392089843751	-843.2359008789065	-188.2637939453125	558.1881103515626	-958.8413085937502	-285.4291687011719	482.4495239257814	-870.1691894531252	-385.7843017578126	524.4623413085939	-859.543884277344	-372.6936035156251	479.5826416015626	-866.2356567382815	-407.4622497558595	451.966278076172	-905.4506835937502	-560.8101806640626	465.9649658203126	-891.5206298828127	-528.1939086914064	447.7207641601564	-969.402282714844	-587.6255493164064	517.0119018554689	-940.6531982421877	-561.4273681640626	315.0891113281251	-968.0332031250002	-564.4814453125001	306.3966064453126	-922.7222900390627	-598.5720825195314	327.9519042968751	-875.0593872070315	
666	3.325	-243.6640777587891	1642.749633789063	-1003.036987304688	-380.7971801757813	1564.2236328125	-1095.745361328125	-364.4223937988282	1571.02783203125	-944.5723266601565	-420.3415527343751	1445.782470703125	-1018.601135253906	-453.1580810546876	1131.297241210938	-1035.26806640625	-287.9515991210938	1372.255859375	-1022.584655761719	-354.3894958496094	1404.612426757813	-1179.00927734375	-225.8752899169922	1354.479248046875	-1283.588500976563	-186.4666748046875	1370.001953125	-1256.766845703125	-164.2563018798828	1348.05859375	-1309.634155273438	-117.0032958984375	1329.129638671875	-1332.156494140625	-102.1345138549805	1263.76416015625	-1286.164184570313	133.5965270996094	1359.232177734375	-1292.847900390625	129.2632751464844	1362.021850585938	-1357.899291992188	216.3548583984376	1374.281127929688	-1296.004272460938	-348.3522338867188	1394.689819335938	-870.2611083984377	-220.6098937988282	1326.409057617188	-773.2955322265627	-186.7623291015625	1356.611206054688	-791.8613891601565	-151.6531372070313	1315.763916015625	-761.7859497070314	-83.45581817626955	1315.484130859375	-762.3936767578126	-77.81765747070314	1263.992309570313	-820.9702758789065	157.8349151611328	1341.943481445313	-827.0960693359377	154.0928039550782	1339.178466796875	-760.7449340820314	234.2549743652344	1361.299926757813	-819.8303833007815	-290.4367370605469	944.2007446289065	-1133.594482421875	-295.6396484375001	952.8938598632815	-917.0508422851565	-457.9708557128907	1021.198913574219	-1030.71826171875	-465.9559936523439	991.4902343750002	-1057.198364257813	-468.6450805664064	993.3159179687502	-1000.215026855469	-369.3465881347657	783.2298583984377	-1188.798828125	-337.9912414550782	704.5787963867189	-1180.581787109375	-289.3152160644532	709.5700073242189	-1173.420532226563	-365.2270202636719	653.8313598632814	-1159.147583007813	-351.6489257812501	496.0334472656251	-1120.1572265625	-320.4587097167969	503.1963195800782	-1004.888000488281	-316.9095458984376	358.7641296386719	-1034.589965820313	-339.4736633300782	298.2770690917969	-1094.9169921875	-310.2796936035157	305.2253112792969	-1057.78564453125	-326.2678222656251	232.9187622070313	-1017.548461914063	-384.526092529297	106.4254531860352	-1055.831787109375	-357.3011474609376	122.5419998168946	-977.4809570312502	-441.8143005371095	96.33169555664065	-1006.902770996094	-240.5123748779297	51.81688308715822	-992.794128417969	-235.4343414306641	50.28884506225587	-1031.953979492188	-260.1658020019532	44.64434432983399	-1082.163818359375	-279.9837036132813	729.4463500976564	-828.677429199219	-219.5443572998047	695.3766479492189	-826.6806640625002	-190.3113403320313	709.3125610351564	-839.4363403320315	-216.3150482177735	611.3233032226564	-834.530456542969	-204.9557189941407	572.9768066406251	-843.1462402343752	-187.3394165039063	558.0827026367189	-958.4501953125002	-285.5645446777344	482.4919738769532	-870.0462646484377	-385.9203491210939	524.5710449218751	-859.5042724609377	-372.8684997558594	479.6194763183595	-866.2608032226565	-407.6541442871095	452.0648498535157	-905.3848876953127	-560.9814453125001	466.0018005371095	-891.4953613281252	-528.4357910156251	447.8047790527345	-969.4027099609377	-587.7695312500001	517.0551147460939	-940.6421508789065	-561.5648193359376	315.1524658203126	-968.100769042969	-564.6617431640626	306.4413452148438	-922.703552246094	-598.6546020507814	328.0094604492188	-875.0500488281252	
667	3.33	-243.5805664062501	1642.77734375	-1003.218078613281	-380.7854309082032	1564.308837890625	-1095.861083984375	-364.2224121093751	1571.006225585938	-944.654235839844	-420.1516418457032	1445.8505859375	-1018.580078125	-453.0481872558595	1131.327880859375	-1035.311767578125	-287.8808288574219	1372.298828125	-1022.76611328125	-354.2308349609376	1404.600708007813	-1179.165283203125	-225.9915618896485	1354.429321289063	-1283.7197265625	-186.5742340087891	1370.041381835938	-1257.043212890625	-164.2041168212891	1347.927978515625	-1309.760620117188	-116.9754791259766	1329.162841796875	-1332.335815429688	-102.1212921142578	1263.624267578125	-1286.463500976563	133.6746063232422	1359.263549804688	-1293.0771484375	129.546615600586	1362.168579101563	-1358.402221679688	216.3022003173829	1374.337524414063	-1296.361328125	-348.0491027832032	1394.736328125	-870.3772583007815	-220.2586517333985	1326.320678710938	-773.5129394531252	-186.4647369384766	1356.707885742188	-791.8743286132815	-151.284652709961	1315.757690429688	-761.9705200195314	-83.14668273925783	1315.727294921875	-762.5556030273439	-77.25502014160158	1264.691284179688	-821.3681640625002	158.2444610595703	1342.202026367188	-827.0891723632815	154.4738464355469	1339.496826171875	-760.8597412109376	234.6982421875001	1361.590698242188	-819.7847900390627	-290.4000549316407	944.1729736328127	-1133.493286132813	-295.6724853515626	952.9473876953127	-916.9463500976565	-457.9494018554689	1021.221130371094	-1030.781494140625	-465.9627685546876	991.4917602539065	-1057.1982421875	-468.708709716797	993.3807373046877	-1000.238586425781	-369.0681762695313	783.162536621094	-1188.781127929688	-337.6375732421876	704.5179443359376	-1180.536254882813	-288.9156494140626	709.5949096679689	-1173.095825195313	-365.0010070800782	653.7961425781251	-1159.098266601563	-351.4598388671876	495.9960021972657	-1120.111083984375	-320.1915283203126	503.171112060547	-1004.789794921875	-316.7160034179688	358.7969665527344	-1034.426635742188	-339.2620849609376	298.2490844726563	-1094.849975585938	-310.0491027832032	305.2289733886719	-1057.622802734375	-325.7858581542969	233.0787200927735	-1017.213195800781	-384.5350952148439	106.4514389038086	-1055.764892578125	-357.3135986328126	122.5335464477539	-977.4111938476565	-441.815155029297	96.34127044677737	-1006.884094238281	-240.4984436035157	51.8504104614258	-992.7490234375002	-235.4142150878907	50.31299591064455	-1031.929931640625	-260.1700134277344	44.63672637939454	-1082.131713867188	-280.0736694335938	729.4837036132814	-828.5701293945315	-219.6626129150391	695.4028930664064	-826.658142089844	-190.4079132080078	709.3027954101564	-839.3607177734377	-216.4464569091797	611.3789062500001	-834.4608154296877	-205.1427001953126	572.9354248046876	-843.101501464844	-188.5671081542969	558.1796264648439	-958.7120361328127	-285.7112731933594	482.4774475097657	-870.0036621093752	-386.1198120117189	524.6153564453126	-859.5241699218752	-373.0735473632813	479.6555480957032	-866.1774902343752	-407.7791748046876	452.0936889648439	-905.4020996093752	-561.0551147460939	466.0371704101564	-891.487731933594	-528.5105590820314	447.7596740722657	-969.2857666015627	-587.9132080078126	517.0751342773439	-940.6043701171877	-561.7770996093751	315.1434326171876	-968.1257934570315	-564.8128662109376	306.4595336914063	-922.7244873046877	-598.8256835937501	327.9888610839844	-875.0155029296877	
668	3.335	-243.4979095458985	1642.802001953125	-1003.386474609375	-380.5903930664063	1564.216552734375	-1095.951538085938	-364.0730895996094	1570.940185546875	-944.7597656250002	-419.9661560058595	1445.876098632813	-1018.655517578125	-453.0452270507814	1131.391723632813	-1035.314575195313	-287.6584472656251	1372.278442382813	-1022.893798828125	-354.2268371582032	1404.636596679688	-1179.2333984375	-225.8922882080079	1354.488159179688	-1283.9111328125	-186.3786010742188	1369.954833984375	-1257.181884765625	-164.1333923339844	1347.904663085938	-1309.91748046875	-116.9707565307617	1329.0751953125	-1332.517333984375	-102.1309890747071	1263.602172851563	-1286.688598632813	133.6785583496094	1359.256225585938	-1293.403076171875	129.439193725586	1362.138061523438	-1358.736083984375	216.7160186767579	1374.385009765625	-1296.517944335938	-347.7266235351563	1394.792724609375	-870.4681396484377	-219.8929290771485	1326.235229492188	-773.658630371094	-186.0593414306641	1356.787963867188	-791.9439086914065	-150.87939453125	1315.724731445313	-762.1181030273439	-82.73057556152345	1315.909057617188	-762.8081054687501	-77.0902557373047	1264.536865234375	-821.5229492187502	158.6494598388672	1342.399658203125	-827.1676025390627	154.8023223876953	1339.664306640625	-760.9218750000001	235.1328887939454	1361.881103515625	-819.7929687500002	-290.3674011230469	944.1274414062502	-1133.38671875	-295.3260192871094	953.3898925781252	-916.5885009765627	-458.0054016113282	1021.242797851563	-1030.809936523438	-465.9815063476564	991.5064697265627	-1057.246704101563	-468.715789794922	993.4304199218752	-1000.234008789063	-368.8754882812501	783.2133789062502	-1188.734008789063	-338.0965881347657	704.6538085937501	-1180.5234375	-288.7034912109376	709.6219482421876	-1172.88623046875	-364.8464355468751	653.8049316406251	-1159.052612304688	-351.1040649414063	495.9448852539064	-1120.0146484375	-320.2248840332032	502.9895935058595	-1004.765197753906	-316.5800476074219	358.7322082519532	-1034.26904296875	-339.0630493164063	298.1673889160157	-1094.803955078125	-309.9150695800782	305.1959228515626	-1057.406005859375	-325.7165527343751	233.1139221191407	-1017.117370605469	-384.5081481933595	106.4529495239258	-1055.734497070313	-357.3230285644532	122.4944610595703	-977.319030761719	-441.797576904297	96.34930419921878	-1006.849487304688	-240.4655761718751	51.79753875732423	-992.7241210937502	-235.3764343261719	50.31043624877931	-1031.90380859375	-260.1824035644532	44.64199447631837	-1082.11279296875	-280.1756896972657	729.4863891601564	-828.5612792968752	-219.7438507080079	695.4443969726564	-826.595397949219	-190.5508880615235	709.2845458984376	-839.3347778320315	-216.6127014160157	611.3901367187501	-834.3882446289065	-205.3159637451172	572.9749755859376	-843.0517578125002	-187.9983978271485	558.1087036132814	-958.4041137695315	-285.8359375000001	482.5373840332032	-869.9692382812502	-386.2136230468751	524.6715698242189	-859.5490722656252	-373.2525024414063	479.6547851562501	-866.1253662109377	-408.0317382812501	452.0579223632814	-905.4091796875002	-561.2440795898439	466.0411071777345	-891.4565429687502	-528.6026000976564	447.7234191894532	-969.2518310546877	-588.1590576171876	517.0212402343751	-940.654479980469	-562.0619506835939	314.4192199707032	-967.8479614257815	-564.9024047851564	306.4544677734376	-922.6182861328127	-598.9810791015626	327.9945678710938	-875.060485839844	
